# MagicaVoxel @ Ephtracy

# group
o 

# material
mtllib AttackGun.mtl
usemtl palette

# normals
vn -1 0 0
vn 1 0 0
vn 0 0 1
vn 0 0 -1
vn 0 -1 0
vn 0 1 0

# texcoords
vt 0.841797 0.5
vt 0.849609 0.5
vt 0.978516 0.5
vt 0.982422 0.5
vt 0.986328 0.5
vt 0.990234 0.5

# verts
v -0.6 0 0.1
v -0.6 0 -0.1
v -0.6 0.4 0.2
v -0.6 0.4 0.1
v -0.6 0.4 -0.1
v -0.6 0.4 -0.2
v -0.6 0.5 0.2
v -0.6 0.5 0.1
v -0.6 0.5 -0.1
v -0.6 0.5 -0.2
v -0.6 0.6 0.1
v -0.6 0.6 -0.1
v -0.5 0.4 0.3
v -0.5 0.4 0.2
v -0.5 0.4 -0.2
v -0.5 0.4 -0.3
v -0.5 0.5 0.3
v -0.5 0.5 0.2
v -0.5 0.5 -0.2
v -0.5 0.5 -0.3
v -0.4 0.5 0.3
v -0.4 0.5 0.2
v -0.4 0.5 -0.2
v -0.4 0.5 -0.3
v -0.4 0.6 0.3
v -0.4 0.6 0.2
v -0.4 0.6 -0.2
v -0.4 0.6 -0.3
v -0.2 0.2 0.1
v -0.2 0.2 -0.1
v -0.2 0.3 0.1
v -0.2 0.3 -0.1
v 0.2 0.2 0.2
v 0.2 0.2 0.1
v 0.2 0.2 -0.1
v 0.2 0.2 -0.2
v 0.2 0.3 0.2
v 0.2 0.3 0.1
v 0.2 0.3 -0.1
v 0.2 0.3 -0.2
v 0.2 0.5 0.2
v 0.2 0.5 0.1
v 0.2 0.5 -0.1
v 0.2 0.5 -0.2
v 0.2 0.6 0.2
v 0.2 0.6 0.1
v 0.2 0.6 -0.1
v 0.2 0.6 -0.2
v 0.5 0.3 0.1
v 0.5 0.3 -0.1
v 0.5 0.5 0.1
v 0.5 0.5 -0.1
v -0.5 0.4 0.2
v -0.5 0.4 0.1
v -0.5 0.4 -0.1
v -0.5 0.4 -0.2
v -0.5 0.5 0.2
v -0.5 0.5 0.1
v -0.5 0.5 -0.1
v -0.5 0.5 -0.2
v -0.5 0.6 0.1
v -0.5 0.6 -0.1
v -0.4 0 0.1
v -0.4 0 -0.1
v -0.4 0.3 0.1
v -0.4 0.3 -0.1
v -0.3 0.4 0.3
v -0.3 0.4 0.2
v -0.3 0.4 -0.2
v -0.3 0.4 -0.3
v -0.3 0.6 0.3
v -0.3 0.6 0.2
v -0.3 0.6 -0.2
v -0.3 0.6 -0.3
v 0.2 0.2 0.1
v 0.2 0.2 -0.1
v 0.2 0.3 0.1
v 0.2 0.3 -0.1
v 0.3 0.3 0.1
v 0.3 0.3 -0.1
v 0.3 0.5 0.1
v 0.3 0.5 -0.1
v 0.5 0.2 0.2
v 0.5 0.2 0.1
v 0.5 0.2 -0.1
v 0.5 0.2 -0.2
v 0.5 0.3 0.2
v 0.5 0.3 0.1
v 0.5 0.3 -0.1
v 0.5 0.3 -0.2
v 0.5 0.5 0.2
v 0.5 0.5 0.1
v 0.5 0.5 -0.1
v 0.5 0.5 -0.2
v 0.5 0.6 0.2
v 0.5 0.6 0.1
v 0.5 0.6 -0.1
v 0.5 0.6 -0.2
v 0.6 0.3 0.1
v 0.6 0.3 -0.1
v 0.6 0.5 0.1
v 0.6 0.5 -0.1
v -0.5 0.4 0.3
v -0.5 0.5 0.3
v -0.4 0.5 0.3
v -0.4 0.6 0.3
v -0.3 0.4 0.3
v -0.3 0.6 0.3
v -0.6 0.4 0.2
v -0.6 0.5 0.2
v -0.5 0.4 0.2
v -0.5 0.5 0.2
v 0.2 0.2 0.2
v 0.2 0.3 0.2
v 0.2 0.5 0.2
v 0.2 0.6 0.2
v 0.3 0.2 0.2
v 0.3 0.3 0.2
v 0.3 0.5 0.2
v 0.3 0.6 0.2
v 0.4 0.2 0.2
v 0.4 0.3 0.2
v 0.4 0.5 0.2
v 0.4 0.6 0.2
v 0.5 0.2 0.2
v 0.5 0.3 0.2
v 0.5 0.5 0.2
v 0.5 0.6 0.2
v -0.6 0 0.1
v -0.6 0.4 0.1
v -0.6 0.5 0.1
v -0.6 0.6 0.1
v -0.5 0.4 0.1
v -0.5 0.5 0.1
v -0.5 0.6 0.1
v -0.4 0 0.1
v -0.4 0.3 0.1
v -0.3 0.4 0.1
v -0.3 0.5 0.1
v -0.2 0.2 0.1
v -0.2 0.3 0.1
v -0.2 0.4 0.1
v -0.2 0.5 0.1
v -0.1 0.4 0.1
v -0.1 0.5 0.1
v -5.96046e-008 0.4 0.1
v -5.96046e-008 0.5 0.1
v 0.1 0.3 0.1
v 0.1 0.4 0.1
v 0.1 0.5 0.1
v 0.2 0.2 0.1
v 0.2 0.3 0.1
v 0.2 0.4 0.1
v 0.2 0.5 0.1
v 0.3 0.3 0.1
v 0.3 0.5 0.1
v 0.5 0.3 0.1
v 0.5 0.5 0.1
v 0.6 0.3 0.1
v 0.6 0.5 0.1
v 0.2 0.2 -0.1
v 0.2 0.3 -0.1
v 0.2 0.5 -0.1
v 0.2 0.6 -0.1
v 0.3 0.2 -0.1
v 0.3 0.3 -0.1
v 0.3 0.5 -0.1
v 0.3 0.6 -0.1
v 0.4 0.2 -0.1
v 0.4 0.3 -0.1
v 0.4 0.5 -0.1
v 0.4 0.6 -0.1
v 0.5 0.2 -0.1
v 0.5 0.3 -0.1
v 0.5 0.5 -0.1
v 0.5 0.6 -0.1
v -0.5 0.4 -0.2
v -0.5 0.5 -0.2
v -0.4 0.5 -0.2
v -0.4 0.6 -0.2
v -0.3 0.4 -0.2
v -0.3 0.6 -0.2
v -0.5 0.4 0.2
v -0.5 0.5 0.2
v -0.4 0.5 0.2
v -0.4 0.6 0.2
v -0.3 0.4 0.2
v -0.3 0.6 0.2
v 0.2 0.2 0.1
v 0.2 0.3 0.1
v 0.2 0.5 0.1
v 0.2 0.6 0.1
v 0.3 0.2 0.1
v 0.3 0.3 0.1
v 0.3 0.5 0.1
v 0.3 0.6 0.1
v 0.4 0.2 0.1
v 0.4 0.3 0.1
v 0.4 0.5 0.1
v 0.4 0.6 0.1
v 0.5 0.2 0.1
v 0.5 0.3 0.1
v 0.5 0.5 0.1
v 0.5 0.6 0.1
v -0.6 0 -0.1
v -0.6 0.4 -0.1
v -0.6 0.5 -0.1
v -0.6 0.6 -0.1
v -0.5 0.4 -0.1
v -0.5 0.5 -0.1
v -0.5 0.6 -0.1
v -0.4 0 -0.1
v -0.4 0.3 -0.1
v -0.3 0.4 -0.1
v -0.3 0.5 -0.1
v -0.2 0.2 -0.1
v -0.2 0.3 -0.1
v -0.2 0.4 -0.1
v -0.2 0.5 -0.1
v -0.1 0.4 -0.1
v -0.1 0.5 -0.1
v -5.96046e-008 0.4 -0.1
v -5.96046e-008 0.5 -0.1
v 0.1 0.4 -0.1
v 0.1 0.5 -0.1
v 0.2 0.2 -0.1
v 0.2 0.3 -0.1
v 0.2 0.4 -0.1
v 0.2 0.5 -0.1
v 0.3 0.3 -0.1
v 0.3 0.5 -0.1
v 0.5 0.3 -0.1
v 0.5 0.5 -0.1
v 0.6 0.3 -0.1
v 0.6 0.5 -0.1
v -0.6 0.4 -0.2
v -0.6 0.5 -0.2
v -0.5 0.4 -0.2
v -0.5 0.5 -0.2
v 0.2 0.2 -0.2
v 0.2 0.3 -0.2
v 0.2 0.5 -0.2
v 0.2 0.6 -0.2
v 0.3 0.2 -0.2
v 0.3 0.3 -0.2
v 0.3 0.5 -0.2
v 0.3 0.6 -0.2
v 0.4 0.2 -0.2
v 0.4 0.3 -0.2
v 0.4 0.5 -0.2
v 0.4 0.6 -0.2
v 0.5 0.2 -0.2
v 0.5 0.3 -0.2
v 0.5 0.5 -0.2
v 0.5 0.6 -0.2
v -0.5 0.4 -0.3
v -0.5 0.5 -0.3
v -0.4 0.5 -0.3
v -0.4 0.6 -0.3
v -0.3 0.4 -0.3
v -0.3 0.6 -0.3
v -0.6 0 0.1
v -0.4 0 0.1
v -0.6 0 -0.1
v -0.4 0 -0.1
v 0.2 0.2 0.2
v 0.3 0.2 0.2
v 0.4 0.2 0.2
v 0.5 0.2 0.2
v -0.2 0.2 0.1
v 0.2 0.2 0.1
v 0.3 0.2 0.1
v 0.4 0.2 0.1
v 0.5 0.2 0.1
v -0.2 0.2 -0.1
v 0.2 0.2 -0.1
v 0.3 0.2 -0.1
v 0.4 0.2 -0.1
v 0.5 0.2 -0.1
v 0.2 0.2 -0.2
v 0.3 0.2 -0.2
v 0.4 0.2 -0.2
v 0.5 0.2 -0.2
v -0.4 0.3 0.1
v -0.2 0.3 0.1
v 0.2 0.3 0.1
v 0.3 0.3 0.1
v 0.5 0.3 0.1
v 0.6 0.3 0.1
v -0.4 0.3 -0.1
v -0.2 0.3 -0.1
v 0.2 0.3 -0.1
v 0.3 0.3 -0.1
v 0.5 0.3 -0.1
v 0.6 0.3 -0.1
v -0.5 0.4 0.3
v -0.3 0.4 0.3
v -0.6 0.4 0.2
v -0.5 0.4 0.2
v -0.3 0.4 0.2
v -0.6 0.4 0.1
v -0.5 0.4 0.1
v -0.6 0.4 -0.1
v -0.5 0.4 -0.1
v -0.6 0.4 -0.2
v -0.5 0.4 -0.2
v -0.3 0.4 -0.2
v -0.5 0.4 -0.3
v -0.3 0.4 -0.3
v 0.2 0.5 0.2
v 0.3 0.5 0.2
v 0.4 0.5 0.2
v 0.5 0.5 0.2
v 0.2 0.5 0.1
v 0.3 0.5 0.1
v 0.4 0.5 0.1
v 0.5 0.5 0.1
v 0.2 0.5 -0.1
v 0.3 0.5 -0.1
v 0.4 0.5 -0.1
v 0.5 0.5 -0.1
v 0.2 0.5 -0.2
v 0.3 0.5 -0.2
v 0.4 0.5 -0.2
v 0.5 0.5 -0.2
v 0.2 0.3 0.2
v 0.3 0.3 0.2
v 0.4 0.3 0.2
v 0.5 0.3 0.2
v 0.2 0.3 0.1
v 0.3 0.3 0.1
v 0.4 0.3 0.1
v 0.5 0.3 0.1
v 0.2 0.3 -0.1
v 0.3 0.3 -0.1
v 0.4 0.3 -0.1
v 0.5 0.3 -0.1
v 0.2 0.3 -0.2
v 0.3 0.3 -0.2
v 0.4 0.3 -0.2
v 0.5 0.3 -0.2
v -0.5 0.5 0.3
v -0.4 0.5 0.3
v -0.6 0.5 0.2
v -0.5 0.5 0.2
v -0.4 0.5 0.2
v -0.6 0.5 0.1
v -0.5 0.5 0.1
v -0.3 0.5 0.1
v -0.2 0.5 0.1
v -0.1 0.5 0.1
v -5.96046e-008 0.5 0.1
v 0.1 0.5 0.1
v 0.2 0.5 0.1
v 0.3 0.5 0.1
v 0.5 0.5 0.1
v 0.6 0.5 0.1
v -0.6 0.5 -0.1
v -0.5 0.5 -0.1
v -0.3 0.5 -0.1
v -0.2 0.5 -0.1
v -0.1 0.5 -0.1
v -5.96046e-008 0.5 -0.1
v 0.1 0.5 -0.1
v 0.2 0.5 -0.1
v 0.3 0.5 -0.1
v 0.5 0.5 -0.1
v 0.6 0.5 -0.1
v -0.6 0.5 -0.2
v -0.5 0.5 -0.2
v -0.4 0.5 -0.2
v -0.5 0.5 -0.3
v -0.4 0.5 -0.3
v -0.4 0.6 0.3
v -0.3 0.6 0.3
v -0.4 0.6 0.2
v -0.3 0.6 0.2
v 0.2 0.6 0.2
v 0.3 0.6 0.2
v 0.4 0.6 0.2
v 0.5 0.6 0.2
v -0.6 0.6 0.1
v -0.5 0.6 0.1
v 0.2 0.6 0.1
v 0.3 0.6 0.1
v 0.4 0.6 0.1
v 0.5 0.6 0.1
v -0.6 0.6 -0.1
v -0.5 0.6 -0.1
v 0.2 0.6 -0.1
v 0.3 0.6 -0.1
v 0.4 0.6 -0.1
v 0.5 0.6 -0.1
v -0.4 0.6 -0.2
v -0.3 0.6 -0.2
v 0.2 0.6 -0.2
v 0.3 0.6 -0.2
v 0.4 0.6 -0.2
v 0.5 0.6 -0.2
v -0.4 0.6 -0.3
v -0.3 0.6 -0.3

# faces
f 4/6/1 2/6/1 1/6/1
f 5/6/1 2/6/1 4/6/1
f 7/6/1 4/6/1 3/6/1
f 7/6/1 6/6/1 5/6/1
f 7/6/1 5/6/1 4/6/1
f 8/6/1 6/6/1 7/6/1
f 9/6/1 6/6/1 8/6/1
f 10/6/1 6/6/1 9/6/1
f 11/6/1 9/6/1 8/6/1
f 12/6/1 9/6/1 11/6/1
f 17/6/1 14/6/1 13/6/1
f 18/6/1 14/6/1 17/6/1
f 19/6/1 16/6/1 15/6/1
f 20/6/1 16/6/1 19/6/1
f 25/6/1 22/6/1 21/6/1
f 26/6/1 22/6/1 25/6/1
f 27/6/1 24/6/1 23/6/1
f 28/6/1 24/6/1 27/6/1
f 31/6/1 30/6/1 29/6/1
f 32/6/1 30/6/1 31/6/1
f 37/5/1 34/5/1 33/5/1
f 38/5/1 34/5/1 37/5/1
f 39/5/1 36/5/1 35/5/1
f 40/5/1 36/5/1 39/5/1
f 45/5/1 42/5/1 41/5/1
f 46/5/1 42/5/1 45/5/1
f 47/5/1 44/5/1 43/5/1
f 48/5/1 44/5/1 47/5/1
f 51/2/1 50/2/1 49/2/1
f 52/2/1 50/2/1 51/2/1
f 53/6/2 54/6/2 57/6/2
f 57/6/2 54/6/2 58/6/2
f 55/6/2 56/6/2 59/6/2
f 59/6/2 56/6/2 60/6/2
f 58/6/2 59/6/2 61/6/2
f 61/6/2 59/6/2 62/6/2
f 63/6/2 64/6/2 65/6/2
f 65/6/2 64/6/2 66/6/2
f 67/6/2 68/6/2 71/6/2
f 71/6/2 68/6/2 72/6/2
f 69/6/2 70/6/2 73/6/2
f 73/6/2 70/6/2 74/6/2
f 75/6/2 76/6/2 77/6/2
f 77/6/2 76/6/2 78/6/2
f 79/5/2 80/5/2 81/5/2
f 81/5/2 80/5/2 82/5/2
f 83/3/2 84/3/2 87/3/2
f 87/3/2 84/3/2 88/3/2
f 85/3/2 86/3/2 89/3/2
f 89/3/2 86/3/2 90/3/2
f 91/3/2 92/3/2 95/3/2
f 95/3/2 92/3/2 96/3/2
f 93/3/2 94/3/2 97/3/2
f 97/3/2 94/3/2 98/3/2
f 99/2/2 100/2/2 101/2/2
f 101/2/2 100/2/2 102/2/2
f 105/6/3 104/6/3 103/6/3
f 107/6/3 105/6/3 103/6/3
f 107/6/3 106/6/3 105/6/3
f 108/6/3 106/6/3 107/6/3
f 111/6/3 110/6/3 109/6/3
f 112/6/3 110/6/3 111/6/3
f 117/5/3 114/5/3 113/5/3
f 118/5/3 114/5/3 117/5/3
f 119/5/3 116/5/3 115/5/3
f 120/5/3 116/5/3 119/5/3
f 121/4/3 118/4/3 117/4/3
f 122/4/3 118/4/3 121/4/3
f 123/4/3 120/4/3 119/4/3
f 124/4/3 120/4/3 123/4/3
f 125/3/3 122/3/3 121/3/3
f 126/3/3 122/3/3 125/3/3
f 127/3/3 124/3/3 123/3/3
f 128/3/3 124/3/3 127/3/3
f 133/6/3 130/6/3 129/6/3
f 134/6/3 132/6/3 131/6/3
f 135/6/3 132/6/3 134/6/3
f 136/6/3 133/6/3 129/6/3
f 136/6/3 134/6/3 133/6/3
f 137/6/3 134/6/3 136/6/3
f 138/6/3 134/6/3 137/6/3
f 139/6/3 134/6/3 138/6/3
f 141/6/3 138/6/3 137/6/3
f 142/2/3 139/2/3 138/2/3
f 142/6/3 138/6/3 141/6/3
f 143/2/3 139/2/3 142/2/3
f 144/6/3 141/6/3 140/6/3
f 144/6/3 142/6/3 141/6/3
f 144/6/3 143/6/3 142/6/3
f 145/6/3 143/6/3 144/6/3
f 146/6/3 144/6/3 140/6/3
f 146/2/3 145/2/3 144/2/3
f 147/2/3 145/2/3 146/2/3
f 148/6/3 146/6/3 140/6/3
f 148/6/3 147/6/3 146/6/3
f 149/6/3 147/6/3 148/6/3
f 150/6/3 147/6/3 149/6/3
f 151/6/3 148/6/3 140/6/3
f 152/1/3 149/1/3 148/1/3
f 152/6/3 148/6/3 151/6/3
f 153/2/3 150/2/3 149/2/3
f 153/1/3 149/1/3 152/1/3
f 154/2/3 150/2/3 153/2/3
f 155/5/3 153/5/3 152/5/3
f 155/5/3 154/5/3 153/5/3
f 156/5/3 154/5/3 155/5/3
f 159/2/3 158/2/3 157/2/3
f 160/2/3 158/2/3 159/2/3
f 165/5/3 162/5/3 161/5/3
f 166/5/3 162/5/3 165/5/3
f 167/5/3 164/5/3 163/5/3
f 168/5/3 164/5/3 167/5/3
f 169/4/3 166/4/3 165/4/3
f 170/4/3 166/4/3 169/4/3
f 171/4/3 168/4/3 167/4/3
f 172/4/3 168/4/3 171/4/3
f 173/3/3 170/3/3 169/3/3
f 174/3/3 170/3/3 173/3/3
f 175/3/3 172/3/3 171/3/3
f 176/3/3 172/3/3 175/3/3
f 179/6/3 178/6/3 177/6/3
f 181/6/3 179/6/3 177/6/3
f 181/6/3 180/6/3 179/6/3
f 182/6/3 180/6/3 181/6/3
f 183/6/4 184/6/4 185/6/4
f 183/6/4 185/6/4 187/6/4
f 185/6/4 186/6/4 187/6/4
f 187/6/4 186/6/4 188/6/4
f 189/5/4 190/5/4 193/5/4
f 193/5/4 190/5/4 194/5/4
f 191/5/4 192/5/4 195/5/4
f 195/5/4 192/5/4 196/5/4
f 193/4/4 194/4/4 197/4/4
f 197/4/4 194/4/4 198/4/4
f 195/4/4 196/4/4 199/4/4
f 199/4/4 196/4/4 200/4/4
f 197/3/4 198/3/4 201/3/4
f 201/3/4 198/3/4 202/3/4
f 199/3/4 200/3/4 203/3/4
f 203/3/4 200/3/4 204/3/4
f 205/6/4 206/6/4 209/6/4
f 207/6/4 208/6/4 210/6/4
f 210/6/4 208/6/4 211/6/4
f 205/6/4 209/6/4 212/6/4
f 209/6/4 210/6/4 212/6/4
f 212/6/4 210/6/4 213/6/4
f 213/6/4 210/6/4 214/6/4
f 214/6/4 210/6/4 215/6/4
f 213/6/4 214/6/4 217/6/4
f 214/2/4 215/2/4 218/2/4
f 217/6/4 214/6/4 218/6/4
f 218/2/4 215/2/4 219/2/4
f 216/6/4 217/6/4 220/6/4
f 217/6/4 218/6/4 220/6/4
f 218/6/4 219/6/4 220/6/4
f 220/6/4 219/6/4 221/6/4
f 216/6/4 220/6/4 222/6/4
f 220/2/4 221/2/4 222/2/4
f 222/2/4 221/2/4 223/2/4
f 216/6/4 222/6/4 224/6/4
f 222/6/4 223/6/4 224/6/4
f 224/6/4 223/6/4 225/6/4
f 216/6/4 224/6/4 226/6/4
f 226/6/4 224/6/4 227/6/4
f 224/2/4 225/2/4 228/2/4
f 227/6/4 224/6/4 228/6/4
f 228/2/4 225/2/4 229/2/4
f 227/5/4 228/5/4 230/5/4
f 228/5/4 229/5/4 230/5/4
f 230/5/4 229/5/4 231/5/4
f 232/2/4 233/2/4 234/2/4
f 234/2/4 233/2/4 235/2/4
f 236/6/4 237/6/4 238/6/4
f 238/6/4 237/6/4 239/6/4
f 240/5/4 241/5/4 244/5/4
f 244/5/4 241/5/4 245/5/4
f 242/5/4 243/5/4 246/5/4
f 246/5/4 243/5/4 247/5/4
f 244/4/4 245/4/4 248/4/4
f 248/4/4 245/4/4 249/4/4
f 246/4/4 247/4/4 250/4/4
f 250/4/4 247/4/4 251/4/4
f 248/3/4 249/3/4 252/3/4
f 252/3/4 249/3/4 253/3/4
f 250/3/4 251/3/4 254/3/4
f 254/3/4 251/3/4 255/3/4
f 256/6/4 257/6/4 258/6/4
f 256/6/4 258/6/4 260/6/4
f 258/6/4 259/6/4 260/6/4
f 260/6/4 259/6/4 261/6/4
f 264/6/5 263/6/5 262/6/5
f 265/6/5 263/6/5 264/6/5
f 271/5/5 267/5/5 266/5/5
f 272/4/5 268/4/5 267/4/5
f 272/5/5 267/5/5 271/5/5
f 273/3/5 269/3/5 268/3/5
f 273/4/5 268/4/5 272/4/5
f 274/3/5 269/3/5 273/3/5
f 275/6/5 271/6/5 270/6/5
f 276/6/5 271/6/5 275/6/5
f 280/5/5 277/5/5 276/5/5
f 281/4/5 278/4/5 277/4/5
f 281/5/5 277/5/5 280/5/5
f 282/3/5 279/3/5 278/3/5
f 282/4/5 278/4/5 281/4/5
f 283/3/5 279/3/5 282/3/5
f 290/6/5 285/6/5 284/6/5
f 291/6/5 285/6/5 290/6/5
f 292/5/5 287/5/5 286/5/5
f 293/5/5 287/5/5 292/5/5
f 294/2/5 289/2/5 288/2/5
f 295/2/5 289/2/5 294/2/5
f 299/6/5 297/6/5 296/6/5
f 300/6/5 297/6/5 299/6/5
f 301/6/5 299/6/5 298/6/5
f 302/6/5 299/6/5 301/6/5
f 305/6/5 304/6/5 303/6/5
f 306/6/5 304/6/5 305/6/5
f 308/6/5 307/6/5 306/6/5
f 309/6/5 307/6/5 308/6/5
f 314/5/5 311/5/5 310/5/5
f 315/4/5 312/4/5 311/4/5
f 315/5/5 311/5/5 314/5/5
f 316/3/5 313/3/5 312/3/5
f 316/4/5 312/4/5 315/4/5
f 317/3/5 313/3/5 316/3/5
f 322/5/5 319/5/5 318/5/5
f 323/4/5 320/4/5 319/4/5
f 323/5/5 319/5/5 322/5/5
f 324/3/5 321/3/5 320/3/5
f 324/4/5 320/4/5 323/4/5
f 325/3/5 321/3/5 324/3/5
f 326/5/6 327/5/6 330/5/6
f 327/4/6 328/4/6 331/4/6
f 330/5/6 327/5/6 331/5/6
f 328/3/6 329/3/6 332/3/6
f 331/4/6 328/4/6 332/4/6
f 332/3/6 329/3/6 333/3/6
f 334/5/6 335/5/6 338/5/6
f 335/4/6 336/4/6 339/4/6
f 338/5/6 335/5/6 339/5/6
f 336/3/6 337/3/6 340/3/6
f 339/4/6 336/4/6 340/4/6
f 340/3/6 337/3/6 341/3/6
f 342/6/6 343/6/6 345/6/6
f 345/6/6 343/6/6 346/6/6
f 344/6/6 345/6/6 347/6/6
f 347/6/6 345/6/6 348/6/6
f 348/6/6 349/6/6 359/6/6
f 349/2/6 350/2/6 360/2/6
f 359/6/6 349/6/6 360/6/6
f 350/6/6 351/6/6 361/6/6
f 360/2/6 350/2/6 361/2/6
f 351/2/6 352/2/6 362/2/6
f 361/6/6 351/6/6 362/6/6
f 352/6/6 353/6/6 363/6/6
f 362/2/6 352/2/6 363/2/6
f 353/2/6 354/2/6 364/2/6
f 363/6/6 353/6/6 364/6/6
f 354/5/6 355/5/6 365/5/6
f 364/2/6 354/2/6 365/2/6
f 365/5/6 355/5/6 366/5/6
f 356/2/6 357/2/6 367/2/6
f 367/2/6 357/2/6 368/2/6
f 358/6/6 359/6/6 369/6/6
f 369/6/6 359/6/6 370/6/6
f 370/6/6 371/6/6 372/6/6
f 372/6/6 371/6/6 373/6/6
f 374/6/6 375/6/6 376/6/6
f 376/6/6 375/6/6 377/6/6
f 378/5/6 379/5/6 384/5/6
f 379/4/6 380/4/6 385/4/6
f 384/5/6 379/5/6 385/5/6
f 380/3/6 381/3/6 386/3/6
f 385/4/6 380/4/6 386/4/6
f 386/3/6 381/3/6 387/3/6
f 382/6/6 383/6/6 388/6/6
f 388/6/6 383/6/6 389/6/6
f 390/5/6 391/5/6 396/5/6
f 391/4/6 392/4/6 397/4/6
f 396/5/6 391/5/6 397/5/6
f 392/3/6 393/3/6 398/3/6
f 397/4/6 392/4/6 398/4/6
f 398/3/6 393/3/6 399/3/6
f 394/6/6 395/6/6 400/6/6
f 400/6/6 395/6/6 401/6/6
