# MagicaVoxel @ Ephtracy

# group
o 

# material
mtllib Piano.mtl
usemtl palette

# normals
vn -1 0 0
vn 1 0 0
vn 0 0 1
vn 0 0 -1
vn 0 -1 0
vn 0 1 0

# texcoords
vt 0.693359 0.5
vt 0.958984 0.5
vt 0.986328 0.5

# verts
v -0.3 0 0.1
v -0.3 0 -0.3
v -0.3 0.4 -0.2
v -0.3 0.4 -0.3
v -0.3 0.4 -0.4
v -0.3 0.5 -0.2
v -0.3 0.5 -0.4
v -0.3 0.8 0.1
v -0.3 0.8 -0.2
v 1.1 0 0.1
v 1.1 0 -0.3
v 1.1 0.4 -0.2
v 1.1 0.4 -0.3
v 1.1 0.4 -0.4
v 1.1 0.5 -0.2
v 1.1 0.5 -0.4
v 1.1 0.8 0.1
v 1.1 0.8 -0.2
v -0.3 0 0.1
v -0.3 0.8 0.1
v 1.1 0 0.1
v 1.1 0.8 0.1
v -0.3 0.5 -0.2
v -0.3 0.8 -0.2
v 1.1 0.5 -0.2
v 1.1 0.8 -0.2
v -0.3 0 -0.3
v -0.3 0.4 -0.3
v 1.1 0 -0.3
v 1.1 0.4 -0.3
v -0.3 0.4 -0.4
v -0.3 0.5 -0.4
v 1.1 0.4 -0.4
v 1.1 0.5 -0.4
v -0.3 0 0.1
v 1.1 0 0.1
v -0.2 0 0
v 1 0 0
v -0.2 0 -0.2
v 1 0 -0.2
v -0.3 0 -0.3
v 1.1 0 -0.3
v -0.3 0.4 -0.3
v 1.1 0.4 -0.3
v -0.3 0.4 -0.4
v 1.1 0.4 -0.4
v -0.3 0.5 -0.2
v 1.1 0.5 -0.2
v -0.3 0.5 -0.4
v 1.1 0.5 -0.4
v -0.3 0.8 0.1
v 1.1 0.8 0.1
v -0.3 0.8 -0.2
v 1.1 0.8 -0.2

# faces
f 3/1/1 2/1/1 1/1/1
f 4/1/1 2/1/1 3/1/1
f 6/1/1 3/1/1 1/1/1
f 6/2/1 5/2/1 4/2/1
f 6/2/1 4/2/1 3/2/1
f 7/2/1 5/2/1 6/2/1
f 8/1/1 6/1/1 1/1/1
f 9/1/1 6/1/1 8/1/1
f 10/1/2 11/1/2 12/1/2
f 12/1/2 11/1/2 13/1/2
f 10/1/2 12/1/2 15/1/2
f 13/2/2 14/2/2 15/2/2
f 12/2/2 13/2/2 15/2/2
f 15/2/2 14/2/2 16/2/2
f 10/1/2 15/1/2 17/1/2
f 17/1/2 15/1/2 18/1/2
f 21/1/3 20/1/3 19/1/3
f 22/1/3 20/1/3 21/1/3
f 23/1/4 24/1/4 25/1/4
f 25/1/4 24/1/4 26/1/4
f 27/1/4 28/1/4 29/1/4
f 29/1/4 28/1/4 30/1/4
f 31/2/4 32/2/4 33/2/4
f 33/2/4 32/2/4 34/2/4
f 37/1/5 36/1/5 35/1/5
f 38/1/5 36/1/5 37/1/5
f 39/1/5 37/1/5 35/1/5
f 39/3/5 38/3/5 37/3/5
f 40/1/5 36/1/5 38/1/5
f 40/3/5 38/3/5 39/3/5
f 41/1/5 39/1/5 35/1/5
f 41/1/5 40/1/5 39/1/5
f 42/1/5 36/1/5 40/1/5
f 42/1/5 40/1/5 41/1/5
f 45/2/5 44/2/5 43/2/5
f 46/2/5 44/2/5 45/2/5
f 47/2/6 48/2/6 49/2/6
f 49/2/6 48/2/6 50/2/6
f 51/1/6 52/1/6 53/1/6
f 53/1/6 52/1/6 54/1/6
